<svg width="1600" height="400" viewBox="0 0 1600 400" fill="none" xmlns="http://www.w3.org/2000/svg" role="img" aria-labelledby="title desc">
  <title id="title">Makriva wide banner</title>
  <desc id="desc">Wide website banner for Makriva admin collaboration.</desc>
  <rect width="1600" height="400" fill="#F6F7F9"/>
  <rect x="56" y="48" width="1488" height="304" rx="24" fill="#FFFFFF" stroke="#D8DDE3"/>
  <rect x="96" y="92" width="84" height="84" rx="18" fill="#111827"/>
  <path d="M118 153V114H127L138 132L150 114H159V153H150V131L141 148H135L127 131V153H118Z" fill="#FFFFFF"/>
  <circle cx="118" cy="113" r="5" fill="#2563EB"/>
  <circle cx="159" cy="113" r="5" fill="#2563EB"/>
  <circle cx="159" cy="159" r="5" fill="#2563EB"/>
  <path d="M123 113H154M159 119V154" stroke="#93C5FD" stroke-width="3" stroke-linecap="round"/>
  <text x="212" y="132" fill="#111827" font-family="Inter, Arial, sans-serif" font-size="46" font-weight="800">Makriva</text>
  <text x="212" y="174" fill="#5F6B7A" font-family="Inter, Arial, sans-serif" font-size="24" font-weight="600">Admin intelligence, shared across teams.</text>
  <text x="96" y="258" fill="#111827" font-family="Inter, Arial, sans-serif" font-size="44" font-weight="800">Incidents. Fixes. Outages. Vulnerabilities. Playbooks.</text>
  <text x="96" y="306" fill="#5F6B7A" font-family="Inter, Arial, sans-serif" font-size="24" font-weight="500">A minimal workspace where IT admins get the information and share the information.</text>
  <g transform="translate(1090 92)">
    <rect width="362" height="214" rx="18" fill="#F8FAFC" stroke="#D8DDE3"/>
    <rect x="28" y="30" width="230" height="16" rx="8" fill="#CBD5E1"/>
    <rect x="28" y="70" width="306" height="16" rx="8" fill="#E2E8F0"/>
    <rect x="28" y="104" width="270" height="16" rx="8" fill="#E2E8F0"/>
    <rect x="28" y="154" width="96" height="34" rx="10" fill="#EFF6FF" stroke="#BFDBFE"/>
    <rect x="140" y="154" width="96" height="34" rx="10" fill="#F0FDF4" stroke="#BBF7D0"/>
    <rect x="252" y="154" width="70" height="34" rx="10" fill="#FFFBEB" stroke="#FDE68A"/>
  </g>
</svg>
