<svg width="1200" height="630" viewBox="0 0 1200 630" fill="none" xmlns="http://www.w3.org/2000/svg" role="img" aria-labelledby="title desc">
  <title id="title">Makriva social banner</title>
  <desc id="desc">Social preview banner for Makriva, a shared intelligence platform for IT admins.</desc>
  <rect width="1200" height="630" fill="#F6F7F9"/>
  <rect x="64" y="64" width="1072" height="502" rx="28" fill="#FFFFFF" stroke="#D8DDE3"/>
  <rect x="104" y="104" width="94" height="94" rx="20" fill="#111827"/>
  <path d="M128 168V125H137L151 146L165 125H174V168H164V143L154 162H148L138 143V168H128Z" fill="#FFFFFF"/>
  <circle cx="128" cy="124" r="5" fill="#2563EB"/>
  <circle cx="174" cy="124" r="5" fill="#2563EB"/>
  <circle cx="174" cy="174" r="5" fill="#2563EB"/>
  <path d="M133 124H169M174 130V169" stroke="#93C5FD" stroke-width="3" stroke-linecap="round"/>
  <text x="224" y="145" fill="#111827" font-family="Inter, Arial, sans-serif" font-size="52" font-weight="800">Makriva</text>
  <text x="224" y="185" fill="#5F6B7A" font-family="Inter, Arial, sans-serif" font-size="24" font-weight="600">Shared intelligence for IT admins</text>
  <text x="104" y="292" fill="#111827" font-family="Inter, Arial, sans-serif" font-size="58" font-weight="800">Stop solving admin problems in silos.</text>
  <text x="104" y="348" fill="#5F6B7A" font-family="Inter, Arial, sans-serif" font-size="28" font-weight="500">Incidents, fixes, outage notes, vulnerabilities, and playbooks in one searchable workspace.</text>
  <g transform="translate(104 422)">
    <rect width="220" height="70" rx="14" fill="#EFF6FF" stroke="#BFDBFE"/>
    <text x="24" y="43" fill="#1D4ED8" font-family="Inter, Arial, sans-serif" font-size="22" font-weight="800">Field fixes</text>
    <rect x="252" width="250" height="70" rx="14" fill="#F0FDF4" stroke="#BBF7D0"/>
    <text x="276" y="43" fill="#15803D" font-family="Inter, Arial, sans-serif" font-size="22" font-weight="800">Live alerts</text>
    <rect x="534" width="300" height="70" rx="14" fill="#FFFBEB" stroke="#FDE68A"/>
    <text x="558" y="43" fill="#B45309" font-family="Inter, Arial, sans-serif" font-size="22" font-weight="800">Admin playbooks</text>
  </g>
  <path d="M846 146C905 146 953 194 953 253C953 312 905 360 846 360C787 360 739 312 739 253C739 194 787 146 846 146Z" fill="#EFF6FF"/>
  <path d="M846 211V253L879 273" stroke="#2563EB" stroke-width="16" stroke-linecap="round" stroke-linejoin="round"/>
  <path d="M760 430H1040" stroke="#D8DDE3" stroke-width="10" stroke-linecap="round"/>
  <path d="M760 470H990" stroke="#D8DDE3" stroke-width="10" stroke-linecap="round"/>
</svg>
